<svg width="268" height="426" viewBox="0 0 268 426" fill="none" xmlns="http://www.w3.org/2000/svg">
<path d="M134.285 0H133.677C60.114 0 0.268005 59.826 0.268005 133.361C0.268005 181.563 22.22 245.178 65.514 322.442C97.612 379.723 130.16 423.594 130.486 424.03C131.392 425.247 132.82 425.964 134.333 425.964C134.376 425.964 134.42 425.964 134.463 425.962C136.024 425.919 137.465 425.12 138.331 423.819C138.652 423.333 170.968 374.532 202.848 314.843C245.878 234.28 267.696 173.219 267.696 133.361C267.693 59.825 207.846 0 134.285 0ZM195.865 136.62C195.865 170.744 168.104 198.504 133.98 198.504C99.857 198.504 72.096 170.743 72.096 136.62C72.096 102.497 99.857 74.736 133.98 74.736C168.104 74.736 195.865 102.497 195.865 136.62Z" fill="#1E30D3"/>
</svg>
