<svg width="48" height="63" viewBox="0 0 48 63" fill="none" xmlns="http://www.w3.org/2000/svg">
<g clip-path="url(#clip0_2_6)">
<path opacity="0.5" d="M15.5 31C24.0604 31 31 24.0604 31 15.5C31 6.93959 24.0604 0 15.5 0C6.93959 0 0 6.93959 0 15.5C0 24.0604 6.93959 31 15.5 31Z" fill="#939BE7"/>
<path opacity="0.5" d="M10.5 63C16.299 63 21 58.299 21 52.5C21 46.701 16.299 42 10.5 42C4.70101 42 0 46.701 0 52.5C0 58.299 4.70101 63 10.5 63Z" fill="#939BE7"/>
<path opacity="0.5" d="M39.5 45C44.1944 45 48 41.1944 48 36.5C48 31.8056 44.1944 28 39.5 28C34.8056 28 31 31.8056 31 36.5C31 41.1944 34.8056 45 39.5 45Z" fill="#939BE7"/>
</g>
<defs>
<clipPath id="clip0_2_6">
<rect width="48" height="63" fill="white"/>
</clipPath>
</defs>
</svg>
