<svg width="63" height="83" viewBox="0 0 63 83" fill="none" xmlns="http://www.w3.org/2000/svg">
<g clip-path="url(#clip0_2_2)">
<path opacity="0.5" d="M20.5 41C31.8218 41 41 31.8218 41 20.5C41 9.17816 31.8218 0 20.5 0C9.17816 0 0 9.17816 0 20.5C0 31.8218 9.17816 41 20.5 41Z" fill="#939BE7"/>
<path opacity="0.5" d="M13.5 83C20.9558 83 27 76.9558 27 69.5C27 62.0442 20.9558 56 13.5 56C6.04416 56 0 62.0442 0 69.5C0 76.9558 6.04416 83 13.5 83Z" fill="#939BE7"/>
<path opacity="0.5" d="M52 59C58.0751 59 63 54.0751 63 48C63 41.9249 58.0751 37 52 37C45.9249 37 41 41.9249 41 48C41 54.0751 45.9249 59 52 59Z" fill="#939BE7"/>
</g>
<defs>
<clipPath id="clip0_2_2">
<rect width="63" height="83" fill="white"/>
</clipPath>
</defs>
</svg>
