<svg width="830" height="622" viewBox="0 0 830 622" fill="none" xmlns="http://www.w3.org/2000/svg">
<g clip-path="url(#clip0_2_16)">
<path opacity="0.5" d="M634 88L648.797 73.3975C654.639 67.633 664.028 67.633 669.869 73.3975L674.131 77.6025C679.972 83.367 689.361 83.367 695.203 77.6025L710 63" stroke="#939BE7" stroke-width="13" stroke-linecap="round"/>
<path opacity="0.5" d="M715 100L729.797 85.3975C735.639 79.633 745.028 79.633 750.869 85.3975L755.131 89.6025C760.972 95.367 770.361 95.367 776.203 89.6025L791 75" stroke="#939BE7" stroke-width="13" stroke-linecap="round"/>
<path opacity="0.5" d="M7 603L21.7972 588.398C27.6386 582.633 37.0281 582.633 42.8695 588.397L47.1305 592.602C52.9719 598.367 62.3614 598.367 68.2028 592.603L83 578" stroke="#939BE7" stroke-width="13" stroke-linecap="round"/>
<path opacity="0.5" d="M88 615L102.797 600.398C108.639 594.633 118.028 594.633 123.869 600.397L128.131 604.602C133.972 610.367 143.361 610.367 149.203 604.603L164 590" stroke="#939BE7" stroke-width="13" stroke-linecap="round"/>
<path opacity="0.5" d="M787.5 568C798.822 568 808 558.822 808 547.5C808 536.178 798.822 527 787.5 527C776.178 527 767 536.178 767 547.5C767 558.822 776.178 568 787.5 568Z" fill="#939BE7"/>
<path opacity="0.5" d="M780.5 610C787.956 610 794 603.956 794 596.5C794 589.044 787.956 583 780.5 583C773.044 583 767 589.044 767 596.5C767 603.956 773.044 610 780.5 610Z" fill="#939BE7"/>
<path opacity="0.5" d="M819 586C825.075 586 830 581.075 830 575C830 568.925 825.075 564 819 564C812.925 564 808 568.925 808 575C808 581.075 812.925 586 819 586Z" fill="#939BE7"/>
<path opacity="0.5" d="M158.5 31C167.06 31 174 24.0604 174 15.5C174 6.93959 167.06 0 158.5 0C149.94 0 143 6.93959 143 15.5C143 24.0604 149.94 31 158.5 31Z" fill="#939BE7"/>
<path opacity="0.5" d="M153.5 63C159.299 63 164 58.299 164 52.5C164 46.701 159.299 42 153.5 42C147.701 42 143 46.701 143 52.5C143 58.299 147.701 63 153.5 63Z" fill="#939BE7"/>
<path opacity="0.5" d="M182.5 45C187.194 45 191 41.1944 191 36.5C191 31.8056 187.194 28 182.5 28C177.806 28 174 31.8056 174 36.5C174 41.1944 177.806 45 182.5 45Z" fill="#939BE7"/>
</g>
<defs>
<clipPath id="clip0_2_16">
<rect width="830" height="622" fill="white"/>
</clipPath>
</defs>
</svg>
